<?xml version="1.0" standalone="no"?><!DOCTYPE svg PUBLIC "-//W3C//DTD SVG 1.1//EN" "http://www.w3.org/Graphics/SVG/1.1/DTD/svg11.dtd"><svg t="1577773030536" class="icon" viewBox="0 0 1024 1024" version="1.1" xmlns="http://www.w3.org/2000/svg" p-id="1986" xmlns:xlink="http://www.w3.org/1999/xlink" width="200" height="200"><defs><style type="text/css"></style></defs><path d="M332.32 464.112l144 160a47.952 47.952 0 0 0 71.36 0l144-160a48 48 0 0 0-71.36-64.224L560 466.912V176a48 48 0 1 0-96 0v290.912l-60.32-67.024a48 48 0 1 0-71.36 64.224zM880 560a48 48 0 0 0-48 48v192H192V608a48 48 0 1 0-96 0v240a48 48 0 0 0 48 48h736a48 48 0 0 0 48-48V608a48 48 0 0 0-48-48z" fill="#ff8198" p-id="1987"></path></svg>